<svg width="55" height="55" viewBox="0 0 55 55" fill="none" xmlns="http://www.w3.org/2000/svg">
<path d="M43.5059 27.6084C39.952 27.6084 37.0606 30.4998 37.0606 34.0537C37.0606 37.6076 39.952 40.499 43.5059 40.499H52.6368C52.6732 40.499 52.7087 40.4953 52.7447 40.4935C52.7804 40.4952 52.8155 40.4989 52.8516 40.4989C54.0382 40.4989 55 39.537 55 38.3505V21.4852C55 18.625 53.5942 16.0883 51.4385 14.5254L44.1295 2.53498C43.8315 2.046 43.3506 1.69623 42.7935 1.56346C42.2364 1.43047 41.6495 1.52554 41.1627 1.82739L35.7726 5.16993L33.3419 1.05632C33.0496 0.56175 32.5716 0.204895 32.0144 0.0652472C31.4573 -0.074401 30.8672 0.0150813 30.3764 0.313284L9.67981 12.8915H6.44545C5.27875 12.8915 4.32624 11.9567 4.29766 10.7968C4.32624 9.63684 5.27875 8.70206 6.44545 8.70206H10.4201C11.6066 8.70206 12.5685 7.74021 12.5685 6.55363C12.5685 5.36705 11.6066 4.40519 10.4201 4.40519H6.44545C3.40563 4.40519 0.850825 6.52075 0.17525 9.3568C0.0628868 9.6174 0.000152588 9.90422 0.000152588 10.206V10.7431V10.8505V46.4071C0.000152588 51.1457 3.8553 55.0008 8.59389 55.0008H46.4063C50.1113 55.0008 53.388 52.6407 54.5597 49.128C54.9353 48.0024 54.3272 46.7855 53.2016 46.4101C52.0761 46.0346 50.8592 46.6427 50.4837 47.7682C49.8979 49.5241 48.2594 50.7039 46.4063 50.7039H8.59389C6.22459 50.7039 4.29702 48.7764 4.29702 46.4071V16.8198C4.96937 17.0583 5.69243 17.1884 6.44545 17.1884H46.4063C48.7756 17.1884 50.7032 19.1159 50.7032 21.4852V27.6084H43.5059ZM50.7032 36.202H43.5059C42.3213 36.2021 41.3575 35.2383 41.3575 34.0536C41.3575 32.8689 42.3213 31.9051 43.5059 31.9051H50.7032V36.202ZM17.9533 12.8916L30.7493 5.11503L33.037 8.98662C33.081 9.09243 33.1315 9.19674 33.1938 9.29728C33.2405 9.37259 33.2923 9.44273 33.3463 9.51019L35.3444 12.8916H17.9533ZM40.3354 12.8915L37.9591 8.87007L41.5874 6.62012L45.4103 12.8915H40.3354Z" fill="#757575"/>
</svg>
