<svg width="61" height="61" viewBox="0 0 61 61" fill="none" xmlns="http://www.w3.org/2000/svg">
<path d="M11.4375 33.0415C7.93512 33.0415 5.08337 35.8933 5.08337 39.3956C5.08337 42.898 7.93512 45.7499 11.4375 45.7499C14.9399 45.7499 17.7916 42.8981 17.7916 39.3957C17.7916 35.8934 14.9399 33.0415 11.4375 33.0415ZM11.4375 43.2082C9.3355 43.2082 7.625 41.4977 7.625 39.3957C7.625 37.2938 9.3355 35.5832 11.4375 35.5832C13.5395 35.5832 15.25 37.2938 15.25 39.3957C15.25 41.4976 13.5395 43.2082 11.4375 43.2082Z" fill="#797979"/>
<path d="M49.5625 33.0415C46.0601 33.0415 43.2084 35.8933 43.2084 39.3956C43.2084 42.898 46.0601 45.7499 49.5625 45.7499C53.0649 45.7499 55.9166 42.8981 55.9166 39.3957C55.9166 35.8934 53.0649 33.0415 49.5625 33.0415ZM49.5625 43.2082C47.4605 43.2082 45.75 41.4977 45.75 39.3957C45.75 37.2938 47.4605 35.5832 49.5625 35.5832C51.6645 35.5832 53.375 37.2938 53.375 39.3957C53.375 41.4976 51.6645 43.2082 49.5625 43.2082Z" fill="#797979"/>
<path d="M53.375 25.4166H51.2248C50.4394 25.4166 49.6693 25.1472 49.0541 24.6541L39.04 16.6428C37.9166 15.7456 36.506 15.25 35.0699 15.25H16.6987C14.5689 15.25 12.594 16.3074 11.4121 18.0789L9.24913 21.3271C8.601 22.2955 7.51825 22.875 6.35413 22.875C2.85175 22.875 0 25.7267 0 29.2291V34.3125C0 37.8149 2.85175 40.6666 6.35413 40.6666C7.05563 40.6666 7.625 40.0972 7.625 39.3958C7.625 38.6943 7.05563 38.125 6.35413 38.125C4.25213 38.125 2.54163 36.4145 2.54163 34.3125V29.2291C2.54163 27.1271 4.25213 25.4166 6.35413 25.4166C8.37225 25.4166 10.2429 24.4152 11.3638 22.7351L13.5268 19.4894C14.2359 18.427 15.4229 17.7915 16.6987 17.7915H35.0699C35.934 17.7915 36.7779 18.0889 37.454 18.6278L47.4681 26.6365C48.528 27.488 49.8649 27.9581 51.2272 27.9581H53.375C57.1036 27.9581 58.4584 31.7579 58.4584 34.3123C58.4584 36.8158 56.542 38.1248 54.6459 38.1248C53.9444 38.1248 53.375 38.6941 53.375 39.3956C53.375 40.0971 53.9444 40.6665 54.6459 40.6665C58.2677 40.6666 61 37.9344 61 34.3125C61 29.9993 58.3287 25.4166 53.375 25.4166Z" fill="#797979"/>
<path d="M44.4791 38.125H16.5209C15.8194 38.125 15.25 38.6944 15.25 39.3959C15.25 40.0974 15.8194 40.6667 16.5209 40.6667H44.4792C45.1807 40.6667 45.7501 40.0974 45.7501 39.3959C45.7501 38.6944 45.1806 38.125 44.4791 38.125Z" fill="#797979"/>
<path d="M41.9375 25.4164H30.5V21.6039C30.5 20.9024 29.9306 20.333 29.2291 20.333C28.5276 20.333 27.9583 20.9024 27.9583 21.6039V26.6873C27.9583 27.3888 28.5276 27.9581 29.2291 27.9581H41.9375C42.639 27.9581 43.2084 27.3888 43.2084 26.6873C43.2084 25.9858 42.639 25.4164 41.9375 25.4164Z" fill="#797979"/>
<path d="M24.1459 25.4168H16.0354L17.6595 22.1736C17.9721 21.5459 17.718 20.7834 17.0901 20.4681C16.4598 20.1555 15.6999 20.4071 15.3846 21.0375L12.843 26.1209C12.6448 26.5123 12.6676 26.9825 12.8989 27.3561C13.1301 27.7298 13.5394 27.9585 13.9791 27.9585H24.1458C24.8473 27.9585 25.4166 27.3891 25.4166 26.6876C25.4166 25.9861 24.8474 25.4168 24.1459 25.4168Z" fill="#797979"/>
<path d="M34.3125 30.5H31.7709C31.0694 30.5 30.5 31.0694 30.5 31.7709C30.5 32.4724 31.0694 33.0417 31.7709 33.0417H34.3125C35.014 33.0417 35.5834 32.4724 35.5834 31.7709C35.5834 31.0694 35.014 30.5 34.3125 30.5Z" fill="#797979"/></svg>
