<svg width="49" height="52" viewBox="0 0 49 52" fill="none" xmlns="http://www.w3.org/2000/svg">
<path d="M42.5923 5.63273H40.9369V3.92351C40.9369 1.75916 39.1322 0 36.9113 0C34.689 0 32.8858 1.75916 32.8858 3.92351V5.6313H28.7547V3.92351C28.7547 1.75916 26.95 0 24.7292 0C22.5083 0 20.7036 1.75916 20.7036 3.92351V5.6313H16.5726V3.92351C16.5726 1.75916 14.7678 0 12.547 0C10.3262 0 8.52148 1.75916 8.52148 3.92351V5.6313H6.40769C2.87517 5.6313 0 8.35207 0 11.6949V45.9364C0 49.2792 2.87517 52 6.40769 52H42.5923C46.1263 52 49 49.2792 49 45.9364V11.6949C49 8.3535 46.1248 5.63273 42.5923 5.63273ZM35.1473 3.92351C35.1473 2.94049 35.9389 2.14009 36.9113 2.14009C37.8853 2.14009 38.6753 2.94049 38.6753 3.92351V10.9088C38.6753 11.8918 37.8853 12.6922 36.9113 12.6922C35.9389 12.6922 35.1473 11.8918 35.1473 10.9088V3.92351ZM22.9652 3.92351C22.9652 2.94049 23.7567 2.14009 24.7292 2.14009C25.7016 2.14009 26.4932 2.94049 26.4932 3.92351V10.9088C26.4932 11.8918 25.7016 12.6922 24.7292 12.6922C23.7567 12.6922 22.9652 11.8918 22.9652 10.9088V3.92351ZM10.7815 3.92351C10.7815 2.94049 11.573 2.14009 12.5455 2.14009C13.518 2.14009 14.3095 2.94049 14.3095 3.92351V10.9088C14.3095 11.8918 13.518 12.6922 12.5455 12.6922C11.573 12.6922 10.7815 11.8918 10.7815 10.9088V3.92351ZM45.2308 45.9378C45.2308 47.3146 44.0472 48.4346 42.5923 48.4346H6.40769C4.95277 48.4346 3.76923 47.3146 3.76923 45.9378V14.5498H45.2308V45.9378Z" fill="#757575"/>
<path d="M14.0894 20.8674H7.16157V26.7013H14.0894V20.8674Z" fill="#757575"/>
<path d="M23.3375 20.8674H16.4082V26.7013H23.3375V20.8674Z" fill="#757575"/>
<path d="M32.5903 20.8674H25.6625V26.7013H32.5903V20.8674Z" fill="#757575"/>
<path d="M41.8384 20.8674H34.9091V26.7013H41.8384V20.8674Z" fill="#757575"/>
<path d="M14.0894 28.6546H7.16157V34.4841H14.0894V28.6546Z" fill="#757575"/>
<path d="M23.3375 28.6546H16.4082V34.4841H23.3375V28.6546Z" fill="#757575"/>
<path d="M32.5903 28.6546H25.6625V34.4841H32.5903V28.6546Z" fill="#757575"/>
<path d="M41.8384 28.6546H34.9091V34.4841H41.8384V28.6546Z" fill="#757575"/>
<path d="M14.0894 36.4387H7.16157V42.2684H14.0894V36.4387Z" fill="#757575"/>
<path d="M23.3375 36.4387H16.4082V42.2684H23.3375V36.4387Z" fill="#757575"/>
<path d="M32.5903 36.4387H25.6625V42.2684H32.5903V36.4387Z" fill="#757575"/>
<path d="M41.8384 36.4387H34.9091V42.2684H41.8384V36.4387Z" fill="#757575"/>
</svg>
