<svg width="15" height="21" viewBox="0 0 15 21" fill="none" xmlns="http://www.w3.org/2000/svg">
<path d="M7.5 0C3.42707 0 0.117188 3.30996 0.117188 7.38281C0.117188 8.76094 0.498715 10.1022 1.22465 11.2588L6.99953 20.7094C7.09805 20.8694 7.2457 20.9678 7.41801 20.9925C7.65172 21.0293 7.91024 20.9309 8.04555 20.6971L13.837 11.1604C14.5259 10.0284 14.8828 8.71176 14.8828 7.38281C14.8828 3.30996 11.5729 0 7.5 0ZM7.5 11.0742C5.43289 11.0742 3.80859 9.40078 3.80859 7.38281C3.80859 5.3525 5.46969 3.69141 7.5 3.69141C9.53031 3.69141 11.1914 5.3525 11.1914 7.38281C11.1914 9.38848 9.59176 11.0742 7.5 11.0742Z" fill="#FDCA0D"/>
</svg>
