<svg width="20" height="20" viewBox="0 0 20 20" fill="none" xmlns="http://www.w3.org/2000/svg">
<path d="M7.66751 5.23115L6.74688 6.666C6.5293 7.00385 6.43029 7.40449 6.46547 7.80481C6.50065 8.20513 6.66801 8.58236 6.94118 8.87709L8.94884 11.0514L11.1231 13.059C11.4179 13.3322 11.7951 13.4995 12.1954 13.5347C12.5957 13.5699 12.9964 13.4709 13.3342 13.2533L14.89 12.2551L18.7923 16.2908L17.2108 18.2955C16.9584 18.6146 16.6176 18.8523 16.2309 18.979C15.8442 19.1056 15.4288 19.1156 15.0365 19.0077C11.8352 18.1562 9.0597 16.2508 6.44149 13.5585C3.74923 10.9403 1.84376 8.16483 0.992042 4.9635C0.884226 4.57119 0.894299 4.15582 1.021 3.7692C1.14771 3.38259 1.38544 3.04183 1.70454 2.78944L3.72134 1.19803L7.66751 5.23115Z" fill="#FDCA0D"/>
<path d="M14.9346 12.2266L14.7002 12.3768L18.7141 16.39L18.802 16.2787C18.9977 16.0306 19.0954 15.7193 19.0767 15.4038C19.0579 15.0884 18.924 14.7909 18.7003 14.5677L16.5354 12.4028C16.3283 12.1958 16.0569 12.0655 15.7659 12.0335C15.4749 12.0015 15.1817 12.0696 14.9346 12.2266Z" fill="#FDCA0D"/>
<path d="M3.72159 1.19803L3.61026 1.28592L7.62346 5.29959L7.77369 5.06522C7.9307 4.81819 7.99885 4.52503 7.9669 4.23407C7.93494 3.94311 7.80479 3.67173 7.59791 3.46467L5.43299 1.29975C5.20981 1.07592 4.91218 0.941894 4.59665 0.92314C4.28113 0.904387 3.96971 1.00221 3.72159 1.19803Z" fill="#FDCA0D"/>
</svg>
