<svg width="13" height="9" viewBox="0 0 13 9" fill="none" xmlns="http://www.w3.org/2000/svg">
<path d="M0.207546 7.69753L0.633379 8.12633C0.767396 8.26024 0.945698 8.33401 1.13626 8.33401C1.32672 8.33401 1.50523 8.26024 1.63925 8.12633L6.49685 3.26851L11.3601 8.13172C11.4939 8.26563 11.6724 8.33929 11.8628 8.33929C12.0533 8.33929 12.2319 8.26563 12.3658 8.13172L12.7918 7.70557C13.0691 7.42844 13.0691 6.97703 12.7918 6.69991L7.00153 0.88886C6.86772 0.755054 6.68942 0.660776 6.49727 0.660776L6.49505 0.660776C6.30449 0.660776 6.12619 0.75516 5.99238 0.88886L0.207546 6.68416C0.0735291 6.81797 -3.34955e-05 7.00166 -0.000244241 7.19212C-0.000244224 7.38268 0.0735292 7.56383 0.207546 7.69753Z" fill="black"/>
</svg>
