<svg width="42" height="42" viewBox="0 0 42 42" fill="none" xmlns="http://www.w3.org/2000/svg">
<g clip-path="url(#clip0)">
<path d="M21 42C32.5788 42 42 32.5797 42 21C42 19.0013 41.721 17.0317 41.1686 15.1454C40.8964 14.2179 39.9279 13.6851 38.9977 13.9573C38.0693 14.2286 37.5383 15.2006 37.8096 16.1281C38.2672 17.6953 38.5 19.335 38.5 21C38.5 30.6494 30.6494 38.5 21 38.5C11.3506 38.5 3.5 30.6494 3.5 21C3.5 11.3506 11.3506 3.5 21 3.5C24.5068 3.5 27.8808 4.52539 30.757 6.46466C31.5577 7.00513 32.6463 6.79279 33.1859 5.99213C33.726 5.19061 33.5153 4.10284 32.7138 3.56281C29.2574 1.23218 25.2071 0 21 0C9.4212 0 0 9.42035 0 21C0 32.5797 9.4212 42 21 42Z" fill="#797979"/>
<path d="M39.0127 4.01286L21 22.0247L15.2373 16.2629C14.5537 15.5797 13.4463 15.5797 12.7627 16.2629C12.0795 16.9465 12.0795 18.0539 12.7627 18.7375L19.7627 25.7375C20.1049 26.0797 20.5518 26.2502 21 26.2502C21.4482 26.2502 21.8951 26.0797 22.2373 25.7375L41.4873 6.48747C42.1705 5.80388 42.1705 4.69646 41.4873 4.01286C40.8037 3.3297 39.6963 3.3297 39.0127 4.01286Z" fill="#797979"/>
</g>
<defs>
<clipPath id="clip0">
<rect width="42" height="42" fill="white"/>
</clipPath>
</defs>
</svg>
