<svg width="13" height="9" viewBox="0 0 13 9" fill="none" xmlns="http://www.w3.org/2000/svg">
<path d="M12.792 1.30254L12.3661 0.873744C12.2321 0.739832 12.0538 0.666059 11.8633 0.666059C11.6728 0.666059 11.4943 0.739832 11.3603 0.873744L6.50266 5.73156L1.63946 0.868353C1.50565 0.734442 1.32714 0.660774 1.13668 0.660774C0.946227 0.660774 0.767608 0.734442 0.633696 0.868353L0.207758 1.2945C-0.069578 1.57163 -0.069578 2.02304 0.207758 2.30016L5.99798 8.11121C6.13179 8.24502 6.31009 8.33929 6.50224 8.33929H6.50446C6.69502 8.33929 6.87332 8.24491 7.00713 8.11121L12.792 2.31591C12.926 2.1821 12.9995 1.99841 12.9998 1.80795C12.9998 1.61739 12.926 1.43624 12.792 1.30254Z" fill="black"/></svg>
