<svg width="42" height="42" viewBox="0 0 42 42" fill="none" xmlns="http://www.w3.org/2000/svg">
<path d="M9.33734 30.5425L10.0533 29.2301L11.2055 29.8587L10.4895 31.1711L9.33734 30.5425Z" fill="#797979"/>
<path d="M15.8373 21.3488C16.1989 20.6866 16.9273 20.2915 17.6722 20.3493L17.766 19.0401C16.5126 18.9521 15.2913 19.6097 14.6856 20.7207L10.7671 27.9053L11.9195 28.5334L15.8373 21.3488Z" fill="#797979"/>
<path d="M41.3438 5.25C41.3438 2.71688 39.2825 0.65625 36.75 0.65625H35.8221L22.6971 13.7812L24.0096 15.0938L21.3111 17.7922C20.2538 16.8971 18.9302 16.4062 17.5298 16.4062C15.5544 16.4062 13.736 17.4051 12.6551 19.0312H0.65625V41.3438H41.3438V19.0312H28.4904L41.3438 6.17794V5.25ZM40.0312 5.25C38.222 5.25 36.75 3.77803 36.75 1.96875C38.5593 1.96875 40.0312 3.44072 40.0312 5.25ZM39.1847 6.48113L30.1875 15.4783L26.5217 11.8125L35.5189 2.81531C35.8667 4.66988 37.3301 6.13331 39.1847 6.48113ZM25.5938 12.7404L29.2596 16.4062L28.2188 17.4471L24.5529 13.7812L25.5938 12.7404ZM25.9783 17.0625L21.4082 21.6326C20.8825 21.5322 20.4678 21.1168 20.3674 20.5925L24.9375 16.0217L25.9783 17.0625ZM9.75253 24.2812H8.53125V20.3438H11.8998L9.75253 24.2812ZM9.03656 25.5938L6.88931 29.5312H5.90625V25.5938H9.03656ZM4.59375 29.5312H1.96875V25.5938H4.59375V29.5312ZM6.20156 30.8438C6.00994 31.3044 5.90625 31.7999 5.90625 32.3C5.90625 33.2489 6.25866 34.1152 6.83681 34.7812H1.96875V30.8438H6.20156ZM11.1562 36.0938V40.0312H5.90625V36.0938H11.1562ZM30.8438 25.5938V29.5312H25.5938V25.5938H30.8438ZM28.2188 34.7812V30.8438H33.4688V34.7812H28.2188ZM21.6562 34.7812V30.8438H26.9062V34.7812H21.6562ZM24.2812 29.5312H22.6761C23.2982 29.1683 23.8409 28.7044 24.2812 28.161V29.5312ZM20.2932 30.8438H20.3438V34.7812H13.0732L20.2932 30.8438ZM12.4688 36.0938H17.7188V40.0312H12.4688V36.0938ZM19.0312 36.0938H24.2812V40.0312H19.0312V36.0938ZM25.5938 36.0938H30.8438V40.0312H25.5938V36.0938ZM32.1562 36.0938H37.4062V40.0312H32.1562V36.0938ZM34.7812 34.7812V30.8438H40.0312V34.7812H34.7812ZM38.7188 29.5312V25.5938H40.0312V29.5312H38.7188ZM37.4062 29.5312H32.1562V25.5938H37.4062V29.5312ZM28.2188 24.2812V20.3438H33.4688V24.2812H28.2188ZM26.9062 24.2812H25.5846C25.5426 22.9504 25.0622 21.6976 24.2078 20.6889L24.5529 20.3438H26.9062V24.2812ZM13.5325 20.0917C14.3312 18.6277 15.8629 17.7188 17.5298 17.7188C18.5798 17.7188 19.5746 18.0731 20.3805 18.7228L19.0312 20.0721V20.3438C19.0312 21.7914 20.2086 22.9688 21.6562 22.9688H21.9279L23.2765 21.6202C23.9269 22.4254 24.2812 23.4202 24.2812 24.4702C24.2812 26.1371 23.3717 27.6688 21.9089 28.4675L10.8885 34.4781C10.5243 34.6763 10.1135 34.7812 9.70003 34.7812C8.33175 34.7812 7.21875 33.6683 7.21875 32.3C7.21875 31.8865 7.32375 31.4757 7.52194 31.1115L13.5325 20.0917ZM7.21875 20.3438V24.2812H1.96875V20.3438H7.21875ZM1.96875 36.0938H4.59375V40.0312H1.96875V36.0938ZM38.7188 40.0312V36.0938H40.0312V40.0312H38.7188ZM40.0312 24.2812H34.7812V20.3438H40.0312V24.2812ZM25.8654 19.0312L26.9062 17.9904L27.9471 19.0312H25.8654Z" fill="#797979"/>
</svg>
