<svg width="42" height="42" viewBox="0 0 42 42" fill="none" xmlns="http://www.w3.org/2000/svg">
<path d="M28.875 10.5H13.125C12.642 10.5 12.25 10.892 12.25 11.375C12.25 11.858 12.642 12.2501 13.125 12.2501H28.875C29.358 12.2501 29.75 11.858 29.75 11.375C29.75 10.892 29.358 10.5 28.875 10.5Z" fill="#797979"/>
<path d="M37.4115 6.99997C36.5435 6.99997 35.7175 7.25025 35 7.69822V2.625C35 1.17772 33.8223 0 32.375 0H2.625C1.17772 0 0 1.17772 0 2.625V39.375C0 40.8223 1.17772 42 2.625 42H32.375C33.8223 42 35 40.8223 35 39.375V20.4855L38.2376 17.248C38.2393 17.2463 38.2411 17.2463 38.2428 17.2444C38.2445 17.2427 38.2445 17.2409 38.2463 17.2392L40.6561 14.8294C41.524 13.9633 42 12.81 42 11.585C42 9.05625 39.942 6.99997 37.4115 6.99997ZM33.25 39.375C33.25 39.858 32.8562 40.25 32.3749 40.25H2.625C2.14372 40.25 1.74997 39.858 1.74997 39.375V35H3.66097C4.02322 36.0167 4.98578 36.75 6.12503 36.75C7.5723 36.75 8.75003 35.5723 8.75003 34.125C8.75003 32.6777 7.5723 31.5 6.12503 31.5C4.98578 31.5 4.0233 32.2333 3.66105 33.25H1.74997V26.25H3.66097C4.02322 27.2668 4.9857 28 6.12495 28C7.57222 28 8.74995 26.8223 8.74995 25.375C8.74995 23.9277 7.57222 22.75 6.12495 22.75C4.9857 22.75 4.02322 23.4832 3.66097 24.4999H1.74997V17.5H3.66097C4.02322 18.5168 4.9857 19.2499 6.12495 19.2499C7.57222 19.2499 8.74995 18.0722 8.74995 16.6249C8.74995 15.1777 7.57222 13.9999 6.12495 13.9999C4.9857 13.9999 4.02322 14.7332 3.66097 15.7499H1.74997V8.74995H3.66097C4.02322 9.76672 4.98578 10.5 6.12503 10.5C7.5723 10.5 8.75003 9.32228 8.75003 7.875C8.75003 6.42772 7.5723 5.25 6.12503 5.25C4.98578 5.25 4.0233 5.98328 3.66105 6.99997H1.74997V2.625C1.74997 2.142 2.14372 1.74997 2.625 1.74997H32.375C32.8563 1.74997 33.2501 2.142 33.2501 2.625V9.26272L31.7555 10.7572L25.0128 17.5H13.125C12.642 17.5 12.25 17.892 12.25 18.375C12.25 18.858 12.642 19.25 13.125 19.25H23.2628L18.0128 24.5H13.125C12.642 24.5 12.25 24.8921 12.25 25.3751C12.25 25.8581 12.642 26.25 13.125 26.25H17.2532L15.9407 31.5H13.125C12.642 31.5 12.25 31.892 12.25 32.375C12.25 32.858 12.642 33.2501 13.125 33.2501H16.625C16.695 33.2501 16.7668 33.2413 16.8368 33.2221L23.8367 31.4721C23.856 31.4669 23.8699 31.4494 23.8892 31.4423C24.0047 31.4039 24.108 31.3478 24.1973 31.2691C24.2113 31.2569 24.2305 31.2569 24.2428 31.2428L33.2501 22.2356V39.375H33.25ZM5.25 34.125C5.25 33.642 5.64375 33.25 6.12503 33.25C6.6063 33.25 7.00005 33.642 7.00005 34.125C7.00005 34.608 6.6063 35 6.12503 35C5.64375 35 5.25 34.608 5.25 34.125ZM5.25 25.375C5.25 24.892 5.64375 24.4999 6.12503 24.4999C6.6063 24.4999 7.00005 24.892 7.00005 25.375C7.00005 25.858 6.60622 26.25 6.12503 26.25C5.64375 26.25 5.25 25.858 5.25 25.375ZM5.25 16.625C5.25 16.142 5.64375 15.75 6.12503 15.75C6.6063 15.75 7.00005 16.142 7.00005 16.625C7.00005 17.108 6.6063 17.5001 6.12503 17.5001C5.64375 17.5 5.25 17.108 5.25 16.625ZM5.25 7.875C5.25 7.392 5.64375 6.99997 6.12503 6.99997C6.6063 6.99997 7.00005 7.392 7.00005 7.875C7.00005 8.358 6.6063 8.75003 6.12503 8.75003C5.64375 8.75003 5.25 8.358 5.25 7.875ZM19.0243 26.3848C19.5896 26.5492 20.426 26.9133 21.2555 27.7428C22.085 28.5723 22.4508 29.4106 22.6153 29.9741L17.8273 31.1728L19.0243 26.3848ZM24.0905 28.9205C23.8053 28.1996 23.331 27.3403 22.4928 26.5055C21.6563 25.6691 20.7971 25.1947 20.0778 24.9095L25.9946 18.9928L32.375 12.614L36.386 16.625L24.0905 28.9205ZM39.4187 13.5922L37.6232 15.3877L33.6122 11.375L34.7445 10.2428L35.4095 9.57772C35.9433 9.0405 36.6555 8.7465 37.4167 8.7465C38.9795 8.7465 40.2517 10.0187 40.2517 11.585C40.25 12.3445 39.9542 13.055 39.4187 13.5922Z" fill="#797979"/></svg>
