<svg width="42" height="42" viewBox="0 0 42 42" fill="none" xmlns="http://www.w3.org/2000/svg">
<path d="M33.1932 26.0173C32.3334 25.122 31.2963 24.6434 30.1971 24.6434C29.1068 24.6434 28.0608 25.1132 27.1655 26.0085L24.3643 28.8008C24.1338 28.6767 23.9034 28.5614 23.6818 28.4462C23.3626 28.2866 23.0612 28.1359 22.8042 27.9764C20.1803 26.3099 17.7958 24.1381 15.5088 21.3281C14.4007 19.9275 13.6561 18.7485 13.1154 17.5518C13.8423 16.887 14.516 16.1956 15.1719 15.5308C15.4201 15.2826 15.6683 15.0255 15.9165 14.7773C17.7781 12.9158 17.7781 10.5047 15.9165 8.64314L13.4966 6.22316C13.2218 5.94836 12.9381 5.6647 12.6722 5.38104C12.1403 4.83145 11.5819 4.26413 11.0057 3.73226C10.1458 2.88128 9.11756 2.4292 8.03611 2.4292C6.95465 2.4292 5.90865 2.88128 5.02222 3.73226C5.01335 3.74113 5.01335 3.74113 5.00449 3.74999L1.9906 6.79048C0.855954 7.92512 0.208854 9.30796 0.0670237 10.9124C-0.145722 13.5008 0.616616 15.9119 1.20167 17.4898C2.6377 21.3635 4.78288 24.9536 7.98292 28.8008C11.8655 33.4368 16.5371 37.0978 21.8734 39.6774C23.9122 40.6436 26.6336 41.7871 29.6741 41.9821C29.8602 41.991 30.0552 41.9998 30.2325 41.9998C32.2802 41.9998 33.9999 41.2641 35.3473 39.8015C35.3562 39.7837 35.3739 39.7749 35.3827 39.7571C35.8437 39.1987 36.3756 38.6934 36.934 38.1527C37.3152 37.7892 37.7052 37.4081 38.0864 37.0092C38.964 36.0961 39.4249 35.0324 39.4249 33.9421C39.4249 32.8429 38.9551 31.788 38.0598 30.9016L33.1932 26.0173ZM36.3667 35.3515C36.3578 35.3515 36.3578 35.3604 36.3667 35.3515C36.021 35.7238 35.6664 36.0607 35.2852 36.433C34.709 36.9826 34.124 37.5588 33.5744 38.2059C32.6791 39.1632 31.6242 39.6153 30.2414 39.6153C30.1084 39.6153 29.9666 39.6153 29.8336 39.6064C27.2009 39.438 24.7543 38.4097 22.9194 37.5322C17.9022 35.1033 13.4966 31.6551 9.83558 27.2849C6.81282 23.6417 4.79174 20.2732 3.45322 16.6565C2.62883 14.4493 2.32744 12.7296 2.46041 11.1074C2.54905 10.0703 2.94795 9.21046 3.68369 8.47471L6.70645 5.45196C7.1408 5.04419 7.60175 4.82258 8.05384 4.82258C8.61229 4.82258 9.06438 5.15943 9.34804 5.44309C9.3569 5.45196 9.36577 5.46082 9.37463 5.46968C9.91536 5.97495 10.4295 6.49795 10.9702 7.05641C11.245 7.34007 11.5287 7.62373 11.8123 7.91626L14.2323 10.3362C15.1719 11.2759 15.1719 12.1446 14.2323 13.0842C13.9752 13.3413 13.727 13.5983 13.47 13.8465C12.7254 14.6089 12.0162 15.318 11.245 16.0094C11.2273 16.0272 11.2096 16.036 11.2007 16.0538C10.4384 16.8161 10.5802 17.5607 10.7397 18.066C10.7486 18.0926 10.7575 18.1192 10.7663 18.1458C11.3957 19.6704 12.2821 21.1065 13.6295 22.8173L13.6384 22.8262C16.085 25.84 18.6645 28.1891 21.51 29.9886C21.8734 30.2191 22.2457 30.4052 22.6003 30.5825C22.9194 30.7421 23.2208 30.8927 23.4779 31.0523C23.5133 31.07 23.5488 31.0966 23.5842 31.1144C23.8856 31.2651 24.1693 31.336 24.4618 31.336C25.1976 31.336 25.6585 30.875 25.8092 30.7243L28.8408 27.6927C29.1422 27.3913 29.6209 27.0279 30.1793 27.0279C30.7289 27.0279 31.181 27.3736 31.4558 27.675C31.4647 27.6838 31.4647 27.6838 31.4735 27.6927L36.3578 32.577C37.2709 33.4811 37.2709 34.4119 36.3667 35.3515Z" fill="#797979"/>
<path d="M22.6978 9.99065C25.0203 10.3807 27.13 11.4799 28.8142 13.1641C30.4985 14.8483 31.5888 16.9581 31.9877 19.2805C32.0852 19.8656 32.5905 20.2733 33.1667 20.2733C33.2376 20.2733 33.2996 20.2645 33.3705 20.2556C34.0265 20.1492 34.4609 19.5287 34.3545 18.8728C33.8758 16.0628 32.5462 13.5009 30.5162 11.471C28.4863 9.44106 25.9245 8.1114 23.1145 7.63272C22.4585 7.52635 21.8468 7.9607 21.7316 8.6078C21.6164 9.2549 22.0419 9.88427 22.6978 9.99065Z" fill="#797979"/>
<path d="M41.9513 18.5271C41.1623 13.8999 38.9817 9.68929 35.631 6.33855C32.2802 2.98781 28.0696 0.807175 23.4424 0.0182442C22.7953 -0.0969928 22.1837 0.346227 22.0684 0.993327C21.9621 1.64929 22.3964 2.26093 23.0524 2.37617C27.1832 3.07646 30.9506 5.03549 33.9467 8.02279C36.9429 11.0189 38.893 14.7863 39.5933 18.9171C39.6908 19.5022 40.1961 19.9099 40.7723 19.9099C40.8432 19.9099 40.9053 19.9011 40.9762 19.8922C41.6233 19.7947 42.0665 19.1742 41.9513 18.5271Z" fill="#797979"/></svg>
