<svg width="42" height="42" viewBox="0 0 42 42" fill="none" xmlns="http://www.w3.org/2000/svg">
<path d="M7.71094 11.8125H9.35156V13.4531C9.35156 14.1327 9.90248 14.6836 10.582 14.6836C11.2616 14.6836 11.8125 14.1327 11.8125 13.4531V11.8125H13.4531C14.1327 11.8125 14.6836 11.2616 14.6836 10.582C14.6836 9.90248 14.1327 9.35156 13.4531 9.35156H11.8125V7.71094C11.8125 7.03139 11.2616 6.48047 10.582 6.48047C9.90248 6.48047 9.35156 7.03139 9.35156 7.71094V9.35156H7.71094C7.03139 9.35156 6.48047 9.90248 6.48047 10.582C6.48047 11.2616 7.03139 11.8125 7.71094 11.8125Z" fill="#797979"/>
<path d="M26.8242 11.8125H31.7461C32.4256 11.8125 32.9766 11.2616 32.9766 10.582C32.9766 9.90248 32.4256 9.35156 31.7461 9.35156H26.8242C26.1447 9.35156 25.5938 9.90248 25.5938 10.582C25.5938 11.2616 26.1447 11.8125 26.8242 11.8125Z" fill="#797979"/>
<path d="M32.1562 30.1055H26.4141C25.7345 30.1055 25.1836 30.6564 25.1836 31.3359C25.1836 32.0155 25.7345 32.5664 26.4141 32.5664H32.1562C32.8358 32.5664 33.3867 32.0155 33.3867 31.3359C33.3867 30.6564 32.8358 30.1055 32.1562 30.1055Z" fill="#797979"/>
<path d="M32.1562 26.0039H26.4141C25.7345 26.0039 25.1836 26.5548 25.1836 27.2344C25.1836 27.9139 25.7345 28.4648 26.4141 28.4648H32.1562C32.8358 28.4648 33.3867 27.9139 33.3867 27.2344C33.3867 26.5548 32.8358 26.0039 32.1562 26.0039Z" fill="#797979"/>
<path d="M13.5028 26.3644C13.0224 25.8839 12.2432 25.8839 11.7627 26.3644L10.582 27.5451L9.40126 26.3643C8.9208 25.8838 8.14167 25.8838 7.66113 26.3643C7.18059 26.8449 7.18059 27.6239 7.66113 28.1044L8.84189 29.2852L7.66113 30.466C7.18059 30.9465 7.18059 31.7255 7.66113 32.2061C7.9014 32.4464 8.21632 32.5665 8.53124 32.5665C8.84615 32.5665 9.16107 32.4464 9.40126 32.206L10.582 31.0253L11.7628 32.2061C12.003 32.4464 12.3179 32.5665 12.6328 32.5665C12.9477 32.5665 13.2626 32.4464 13.5028 32.206C13.9834 31.7255 13.9834 30.9464 13.5028 30.4659L12.3221 29.2852L13.5029 28.1044C13.9834 27.624 13.9834 26.8449 13.5028 26.3644Z" fill="#797979"/>
<path d="M39.8672 22.2443V3.69141C39.8672 1.65596 38.2112 0 36.1758 0H3.69141C1.65596 0 0 1.65596 0 3.69141V36.1758C0 38.2112 1.65596 39.8672 3.69141 39.8672H22.2442C24.2614 41.2138 26.683 42 29.2852 42C36.2962 42 42 36.2961 42 29.2852C42 26.6831 41.2138 24.2615 39.8672 22.2443ZM37.4062 3.69141V19.5095C35.202 17.6752 32.3703 16.5703 29.2852 16.5703C26.2 16.5703 23.3683 17.6752 21.1641 19.5095V2.46094H36.1758C36.8543 2.46094 37.4062 3.01293 37.4062 3.69141ZM3.69141 2.46094H18.7031V18.7031H2.46094V3.69141C2.46094 3.01293 3.01293 2.46094 3.69141 2.46094ZM2.46094 36.1758V21.1641H18.7031V22.2443C17.3565 24.2615 16.5703 26.6831 16.5703 29.2852C16.5703 32.3703 17.6752 35.202 19.5095 37.4062H3.69141C3.01293 37.4062 2.46094 36.8543 2.46094 36.1758ZM29.2852 39.5391C23.6312 39.5391 19.0312 34.9392 19.0312 29.2852C19.0312 23.6312 23.6312 19.0312 29.2852 19.0312C34.9392 19.0312 39.5391 23.6312 39.5391 29.2852C39.5391 34.9392 34.9392 39.5391 29.2852 39.5391Z" fill="#797979"/></svg>
