<svg width="49" height="57" viewBox="0 0 49 57" fill="none" xmlns="http://www.w3.org/2000/svg">
<path d="M47.1742 9.2303L25.3539 0.170756C24.8073 -0.0561306 24.1929 -0.0562419 23.6464 0.170756L1.82606 9.2303C0.995 9.57542 0.453278 10.3868 0.453278 11.2866V22.2998C0.453278 37.4641 9.61881 51.1048 23.6587 56.8354C24.198 57.0555 24.8022 57.0555 25.3416 56.8354C39.3813 51.1049 48.547 37.4642 48.547 22.2998V11.2866C48.547 10.3868 48.0054 9.57542 47.1742 9.2303ZM44.0939 22.2998C44.0939 35.191 36.5236 47.0583 24.5002 52.3555C12.798 47.1998 4.9064 35.5404 4.9064 22.2998V12.7731L24.5002 4.63791L44.0939 12.7731V22.2998ZM22.0391 29.8049L31.6093 20.2348C32.4788 19.3653 33.8886 19.3652 34.7581 20.2348C35.6277 21.1043 35.6276 22.5141 34.758 23.3836L23.6135 34.5281C22.7438 35.3978 21.3341 35.3974 20.4647 34.5281L14.2422 28.3055C13.3726 27.4359 13.3726 26.0262 14.2422 25.1567C15.1117 24.2872 16.5215 24.2871 17.391 25.1567L22.0391 29.8049Z" fill="#757575"/>
</svg>
