<svg width="67" height="67" viewBox="0 0 67 67" fill="none" xmlns="http://www.w3.org/2000/svg"><g clip-path="url(#clip0)">
<path d="M50.602 39.8345C45.9451 39.8345 42.1566 43.623 42.1566 48.2799C42.1566 52.9368 45.9451 56.7253 50.602 56.7253C55.2597 56.7253 59.0474 52.9368 59.0474 48.2799C59.0474 43.623 55.2589 39.8345 50.602 39.8345ZM50.602 52.5026C48.2732 52.5026 46.3793 50.6087 46.3793 48.2799C46.3793 45.9512 48.2732 44.0572 50.602 44.0572C52.9308 44.0572 54.8247 45.9512 54.8247 48.2799C54.8247 50.6088 52.9308 52.5026 50.602 52.5026Z" fill="#757575"/>
<path d="M21.747 39.8345C17.0901 39.8345 13.3016 43.623 13.3016 48.2799C13.3016 52.9368 17.0901 56.7253 21.747 56.7253C26.4039 56.7253 30.1924 52.9368 30.1924 48.2799C30.1924 43.623 26.4039 39.8345 21.747 39.8345ZM21.747 52.5026C19.4182 52.5026 17.5243 50.6087 17.5243 48.2799C17.5243 45.9512 19.4182 44.0572 21.747 44.0572C24.0751 44.0572 25.9697 45.9512 25.9697 48.2799C25.9697 50.6088 24.0758 52.5026 21.747 52.5026Z" fill="#757575"/>
<path d="M56.2893 15.6611C55.9304 14.9482 55.2006 14.4985 54.4025 14.4985H43.2827V18.7212H53.1004L58.8496 30.1562L62.6233 28.2587L56.2893 15.6611Z" fill="#757575"/>
<path d="M44.268 46.2391H28.2922V50.4618H44.268V46.2391Z" fill="#757575"/>
<path d="M15.4129 46.2391H8.09368C6.92746 46.2391 5.98239 47.1843 5.98239 48.3503C5.98239 49.5166 6.92759 50.4616 8.09368 50.4616H15.413C16.5793 50.4616 17.5243 49.5164 17.5243 48.3503C17.5243 47.1841 16.5791 46.2391 15.4129 46.2391Z" fill="#757575"/>
<path d="M66.5568 33.3316L62.4039 27.9829C62.0049 27.4677 61.389 27.1664 60.7366 27.1664H45.3941V12.387C45.3941 11.2208 44.4489 10.2758 43.2828 10.2758H8.09368C6.92746 10.2758 5.98239 11.221 5.98239 12.387C5.98239 13.5531 6.92759 14.4983 8.09368 14.4983H41.1714V29.2777C41.1714 30.4439 42.1166 31.389 43.2827 31.389H59.7027L62.7775 35.3499V46.2388H56.936C55.7698 46.2388 54.8247 47.184 54.8247 48.3501C54.8247 49.5163 55.7699 50.4614 56.936 50.4614H64.8887C66.055 50.4614 67 49.5162 67.0002 48.3501V34.6266C67.0002 34.1579 66.8439 33.7018 66.5568 33.3316Z" fill="#757575"/>
<path d="M15.2722 35.5416H5.55998C4.39377 35.5416 3.4487 36.4868 3.4487 37.6529C3.4487 38.8191 4.3939 39.7641 5.55998 39.7641H15.2721C16.4383 39.7641 17.3834 38.8189 17.3834 37.6529C17.3835 36.4868 16.4383 35.5416 15.2722 35.5416Z" fill="#757575"/>
<path d="M20.1283 27.2368H2.11144C0.94535 27.2368 0.000152588 28.182 0.000152588 29.3482C0.000152588 30.5145 0.94535 31.4595 2.11144 31.4595H20.1283C21.2945 31.4595 22.2396 30.5143 22.2396 29.3482C22.2396 28.1822 21.2945 27.2368 20.1283 27.2368Z" fill="#757575"/>
<path d="M23.5768 18.9322H5.55998C4.39377 18.9322 3.4487 19.8774 3.4487 21.0435C3.4487 22.2097 4.3939 23.1548 5.55998 23.1548H23.5768C24.7431 23.1548 25.6881 22.2096 25.6881 21.0435C25.6883 19.8774 24.7431 18.9322 23.5768 18.9322Z" fill="#757575"/>
</g><defs><clipPath id="clip0"><rect width="67" height="67" fill="white" transform="translate(0.000152588 0.000549316)"/></clipPath></defs></svg>
