<svg xmlns="http://www.w3.org/2000/svg" xmlns:xlink="http://www.w3.org/1999/xlink"><symbol id="icon-arr-down" viewBox="0 0 13 9"><path d="M12.792 1.303l-.426-.43a.706.706 0 00-.503-.207.706.706 0 00-.503.208L6.503 5.732 1.639.868a.706.706 0 00-.502-.207c-.19 0-.37.073-.503.207l-.426.426a.712.712 0 000 1.006l5.79 5.811a.727.727 0 00.504.228h.002c.191 0 .37-.094.503-.228l5.785-5.795a.719.719 0 000-1.013z"/></symbol><symbol id="icon-arr-left" viewBox="0 0 12 20"><path d="M1.13 8.88L9.048.964a1.579 1.579 0 012.24 0c.618.619.618 1.62 0 2.239L4.488 10l6.797 6.797c.62.62.62 1.62 0 2.239-.619.619-1.62.619-2.239 0l-7.916-7.917C.51 10.5.51 9.5 1.13 8.88z"/></symbol><symbol id="icon-arr-right" viewBox="0 0 12 20"><path d="M11.286 11.12L3.37 19.036a1.579 1.579 0 01-2.238 0 1.582 1.582 0 010-2.238L7.928 10 1.13 3.203c-.62-.619-.62-1.62 0-2.239.619-.619 1.62-.619 2.238 0l7.917 7.917c.62.619.62 1.62 0 2.239z"/></symbol><symbol id="icon-arr-up" viewBox="0 0 13 9"><path d="M.208 7.698l.425.428a.706.706 0 00.503.208c.19 0 .37-.074.503-.208L6.497 3.27l4.863 4.863a.705.705 0 00.503.207c.19 0 .369-.073.503-.207l.426-.426a.712.712 0 000-1.006L7.002.889A.727.727 0 006.497.66h-.002a.727.727 0 00-.503.228L.208 6.684a.718.718 0 000 1.014z"/></symbol><symbol id="icon-cache" viewBox="0 0 55 55"><path d="M43.506 27.608a6.453 6.453 0 00-6.445 6.446 6.453 6.453 0 006.445 6.445h9.13c.037 0 .073-.004.109-.006.035.002.07.006.107.006A2.148 2.148 0 0055 38.35V21.485a8.586 8.586 0 00-3.562-6.96L44.13 2.535a2.148 2.148 0 00-2.966-.708l-5.39 3.343-2.431-4.114a2.149 2.149 0 00-2.966-.743L9.68 12.892H6.445a2.151 2.151 0 01-2.147-2.095 2.151 2.151 0 012.147-2.095h3.975a2.148 2.148 0 000-4.297H6.445c-3.04 0-5.594 2.116-6.27 4.952-.112.26-.175.547-.175.849v36.201c0 4.739 3.855 8.594 8.594 8.594h37.812a8.583 8.583 0 008.154-5.873 2.148 2.148 0 10-4.076-1.36 4.292 4.292 0 01-4.078 2.936H8.594a4.302 4.302 0 01-4.297-4.297V16.82a6.414 6.414 0 002.148.368h39.961a4.302 4.302 0 014.297 4.297v6.123h-7.197zm7.197 8.594h-7.197a2.15 2.15 0 01-2.148-2.148 2.15 2.15 0 012.148-2.149h7.197v4.297zm-32.75-23.31L30.75 5.115l2.288 3.872c.044.105.095.21.157.31.046.076.098.146.152.213l1.998 3.382h-17.39zm22.382 0L37.96 8.87l3.628-2.25 3.823 6.272h-5.075z"/></symbol><symbol id="icon-calendar" viewBox="0 0 49 52"><path d="M42.592 5.633h-1.655v-1.71C40.937 1.76 39.132 0 36.91 0c-2.222 0-4.025 1.76-4.025 3.924V5.63h-4.131V3.924C28.755 1.759 26.95 0 24.729 0c-2.22 0-4.025 1.76-4.025 3.924V5.63h-4.131V3.924C16.573 1.759 14.768 0 12.547 0c-2.22 0-4.026 1.76-4.026 3.924V5.63H6.408C2.875 5.631 0 8.352 0 11.695v34.241C0 49.28 2.875 52 6.408 52h36.184C46.126 52 49 49.28 49 45.936V11.695c0-3.341-2.875-6.062-6.408-6.062zm-7.445-1.71c0-.983.792-1.783 1.764-1.783.974 0 1.764.8 1.764 1.784v6.985c0 .983-.79 1.783-1.764 1.783-.972 0-1.764-.8-1.764-1.783V3.924zm-12.182 0c0-.983.792-1.783 1.764-1.783.973 0 1.764.8 1.764 1.784v6.985c0 .983-.791 1.783-1.764 1.783-.972 0-1.764-.8-1.764-1.783V3.924zm-12.184 0c0-.983.792-1.783 1.764-1.783.973 0 1.764.8 1.764 1.784v6.985c0 .983-.791 1.783-1.763 1.783-.973 0-1.764-.8-1.764-1.783V3.924zm34.45 42.015c0 1.377-1.184 2.497-2.639 2.497H6.408c-1.455 0-2.639-1.12-2.639-2.497V14.55h41.462v31.388z"/><path d="M14.09 20.867H7.161v5.834h6.927v-5.834zM23.337 20.867h-6.929v5.834h6.93v-5.834zM32.59 20.867h-6.928v5.834h6.928v-5.834zM41.838 20.867H34.91v5.834h6.93v-5.834zM14.09 28.655H7.161v5.83h6.927v-5.83zM23.337 28.655h-6.929v5.83h6.93v-5.83zM32.59 28.655h-6.928v5.83h6.928v-5.83zM41.838 28.655H34.91v5.83h6.93v-5.83zM14.09 36.439H7.161v5.83h6.927v-5.83zM23.337 36.439h-6.929v5.83h6.93v-5.83zM32.59 36.439h-6.928v5.83h6.928v-5.83zM41.838 36.439H34.91v5.83h6.93v-5.83z"/></symbol><symbol id="icon-call" viewBox="0 0 42 42"><path d="M33.193 26.017c-.86-.895-1.897-1.374-2.996-1.374-1.09 0-2.136.47-3.031 1.366L24.364 28.8c-.23-.124-.46-.24-.682-.355-.32-.16-.62-.31-.878-.47-2.624-1.666-5.008-3.838-7.295-6.648-1.108-1.4-1.853-2.58-2.394-3.776.727-.665 1.401-1.356 2.057-2.021.248-.248.496-.506.744-.754 1.862-1.861 1.862-4.272 0-6.134l-2.42-2.42c-.274-.275-.558-.558-.824-.842a41.875 41.875 0 00-1.666-1.649c-.86-.85-1.888-1.303-2.97-1.303-1.081 0-2.127.452-3.014 1.303l-.018.018-3.013 3.04a6.485 6.485 0 00-1.924 4.122c-.213 2.589.55 5 1.135 6.578 1.436 3.873 3.58 7.464 6.78 11.31 3.884 4.637 8.555 8.298 13.891 10.877 2.04.967 4.76 2.11 7.801 2.305.186.009.381.018.559.018 2.047 0 3.767-.736 5.114-2.199.01-.017.027-.026.036-.044.46-.558.993-1.064 1.551-1.604.381-.364.771-.745 1.152-1.144.878-.913 1.339-1.977 1.339-3.067 0-1.1-.47-2.154-1.365-3.04l-4.867-4.885zm3.174 9.335c-.01 0-.01.008 0 0-.346.372-.7.709-1.082 1.081-.576.55-1.161 1.126-1.71 1.773-.896.957-1.95 1.41-3.334 1.41-.133 0-.274 0-.407-.01-2.633-.168-5.08-1.196-6.915-2.074-5.017-2.429-9.422-5.877-13.083-10.247-3.023-3.643-5.044-7.012-6.383-10.628-.824-2.208-1.126-3.927-.993-5.55a4.07 4.07 0 011.224-2.632l3.022-3.023c.435-.408.896-.63 1.348-.63.558 0 1.01.337 1.294.621l.027.027c.54.505 1.055 1.028 1.595 1.586.275.284.559.568.842.86l2.42 2.42c.94.94.94 1.809 0 2.748-.257.257-.505.514-.762.763a46.224 46.224 0 01-2.225 2.162c-.018.018-.035.027-.044.045-.763.762-.62 1.507-.461 2.012l.026.08c.63 1.524 1.516 2.96 2.864 4.671l.008.01c2.447 3.013 5.027 5.362 7.872 7.162.363.23.736.416 1.09.593.32.16.62.31.878.47.035.018.07.045.106.062.302.151.585.222.878.222.736 0 1.197-.461 1.347-.612l3.032-3.031c.301-.302.78-.665 1.338-.665.55 0 1.002.346 1.277.647l.018.018 4.884 4.884c.913.904.913 1.835.009 2.775zM22.698 9.99c2.322.39 4.432 1.49 6.116 3.174a11.3 11.3 0 013.174 6.117 1.19 1.19 0 001.179.992 1.198 1.198 0 001.188-1.4 13.672 13.672 0 00-3.839-7.402 13.672 13.672 0 00-7.401-3.838 1.203 1.203 0 00-1.383.975c-.116.647.31 1.276.966 1.383zM41.951 18.527c-.789-4.627-2.97-8.838-6.32-12.188C32.281 2.988 28.07.807 23.442.019a1.192 1.192 0 00-1.374.974 1.203 1.203 0 00.984 1.383c4.131.7 7.899 2.66 10.895 5.647 2.996 2.996 4.946 6.763 5.646 10.894a1.19 1.19 0 001.18.993c.07 0 .132-.009.203-.018a1.174 1.174 0 00.975-1.365z"/></symbol><symbol id="icon-car" viewBox="0 0 61 61"><path d="M11.438 33.041a6.363 6.363 0 00-6.355 6.355 6.363 6.363 0 006.354 6.354 6.363 6.363 0 006.355-6.354 6.363 6.363 0 00-6.355-6.355zm0 10.167a3.817 3.817 0 01-3.813-3.812 3.817 3.817 0 013.813-3.813 3.817 3.817 0 013.812 3.813 3.817 3.817 0 01-3.813 3.812zM49.563 33.041a6.363 6.363 0 00-6.355 6.355 6.363 6.363 0 006.355 6.354 6.363 6.363 0 006.354-6.354 6.363 6.363 0 00-6.355-6.355zm0 10.167a3.817 3.817 0 01-3.813-3.812 3.817 3.817 0 013.813-3.813 3.817 3.817 0 013.812 3.813 3.817 3.817 0 01-3.813 3.812z"/><path d="M53.375 25.417h-2.15a3.48 3.48 0 01-2.17-.763L39.04 16.643a6.388 6.388 0 00-3.97-1.393H16.699a6.341 6.341 0 00-5.287 2.829L9.25 21.327a3.48 3.48 0 01-2.895 1.548A6.363 6.363 0 000 29.229v5.084a6.363 6.363 0 006.354 6.354 1.271 1.271 0 000-2.542 3.817 3.817 0 01-3.812-3.813V29.23a3.817 3.817 0 013.812-3.812 6.008 6.008 0 005.01-2.682l2.163-3.246a3.809 3.809 0 013.172-1.698h18.37c.865 0 1.709.298 2.385.837l10.014 8.009a6.027 6.027 0 003.76 1.321h2.147c3.729 0 5.083 3.8 5.083 6.354 0 2.504-1.916 3.813-3.812 3.813a1.271 1.271 0 000 2.541c3.622 0 6.354-2.732 6.354-6.353 0-4.314-2.671-8.896-7.625-8.896z"/><path d="M44.48 38.125H16.52a1.271 1.271 0 000 2.542h27.96a1.271 1.271 0 000-2.542zM41.938 25.416H30.5v-3.812a1.271 1.271 0 00-2.542 0v5.083c0 .702.57 1.271 1.271 1.271h12.709a1.271 1.271 0 000-2.542zM24.146 25.417h-8.11l1.623-3.243a1.27 1.27 0 10-2.275-1.136l-2.541 5.083a1.272 1.272 0 001.136 1.838h10.167a1.271 1.271 0 000-2.542zM34.313 30.5H31.77a1.271 1.271 0 000 2.542h2.541a1.271 1.271 0 000-2.542z"/></symbol><symbol id="icon-contract" viewBox="0 0 42 42"><path d="M28.875 10.5h-15.75a.875.875 0 000 1.75h15.75a.875.875 0 000-1.75z"/><path d="M37.411 7c-.867 0-1.694.25-2.411.698V2.625A2.628 2.628 0 0032.375 0H2.625A2.628 2.628 0 000 2.625v36.75A2.628 2.628 0 002.625 42h29.75A2.628 2.628 0 0035 39.375v-18.89l3.238-3.237.005-.004c.002-.001.002-.003.003-.005l2.41-2.41A4.553 4.553 0 0042 11.585 4.591 4.591 0 0037.411 7zM33.25 39.375a.876.876 0 01-.875.875H2.625a.876.876 0 01-.875-.875V35h1.911a2.62 2.62 0 002.464 1.75 2.628 2.628 0 002.625-2.625A2.628 2.628 0 006.125 31.5a2.62 2.62 0 00-2.464 1.75H1.75v-7h1.911A2.62 2.62 0 006.125 28a2.628 2.628 0 002.625-2.625 2.628 2.628 0 00-2.625-2.625 2.62 2.62 0 00-2.464 1.75H1.75v-7h1.911a2.62 2.62 0 002.464 1.75 2.628 2.628 0 002.625-2.625A2.628 2.628 0 006.125 14a2.62 2.62 0 00-2.464 1.75H1.75v-7h1.911a2.62 2.62 0 002.464 1.75A2.628 2.628 0 008.75 7.875 2.628 2.628 0 006.125 5.25 2.62 2.62 0 003.661 7H1.75V2.625c0-.483.394-.875.875-.875h29.75c.481 0 .875.392.875.875v6.638l-1.494 1.494-6.743 6.743H13.125a.875.875 0 000 1.75h10.138l-5.25 5.25h-4.888a.875.875 0 000 1.75h4.128l-1.312 5.25h-2.816a.875.875 0 000 1.75h3.5c.07 0 .142-.009.212-.028l7-1.75c.019-.005.033-.023.052-.03a.877.877 0 00.308-.173c.014-.012.034-.012.046-.026l9.007-9.007v17.139zm-28-5.25c0-.483.394-.875.875-.875s.875.392.875.875a.876.876 0 01-.875.875.876.876 0 01-.875-.875zm0-8.75c0-.483.394-.875.875-.875s.875.392.875.875a.876.876 0 01-.875.875.876.876 0 01-.875-.875zm0-8.75c0-.483.394-.875.875-.875s.875.392.875.875a.877.877 0 01-.875.875.877.877 0 01-.875-.875zm0-8.75c0-.483.394-.875.875-.875S7 7.392 7 7.875a.876.876 0 01-.875.875.876.876 0 01-.875-.875zm13.774 18.51c.566.164 1.402.528 2.232 1.358.829.83 1.195 1.668 1.36 2.231l-4.789 1.199 1.197-4.788zm5.066 2.535a7.017 7.017 0 00-1.597-2.415 7.066 7.066 0 00-2.415-1.595l5.917-5.917 6.38-6.379 4.011 4.011L24.09 28.921zM39.42 13.593l-1.796 1.796-4.01-4.013 1.132-1.132.665-.665a2.806 2.806 0 012.007-.832 2.84 2.84 0 012.002 4.846z"/></symbol><symbol id="icon-count" viewBox="0 0 42 42"><path d="M7.71 11.813h1.642v1.64a1.23 1.23 0 102.46 0v-1.64h1.641a1.23 1.23 0 100-2.461h-1.64V7.71a1.23 1.23 0 00-2.461 0v1.64H7.71a1.23 1.23 0 000 2.461zM26.824 11.813h4.922a1.23 1.23 0 000-2.461h-4.922a1.23 1.23 0 000 2.46zM32.156 30.105h-5.742a1.23 1.23 0 100 2.461h5.742a1.23 1.23 0 100-2.46zM32.156 26.004h-5.742a1.23 1.23 0 100 2.46h5.742a1.23 1.23 0 100-2.46zM13.503 26.364a1.23 1.23 0 00-1.74 0l-1.181 1.181-1.18-1.18a1.23 1.23 0 00-1.74 1.74l1.18 1.18-1.18 1.181a1.23 1.23 0 101.74 1.74l1.18-1.18 1.18 1.18a1.226 1.226 0 001.74 0c.481-.48.481-1.26 0-1.74l-1.18-1.18 1.18-1.182c.481-.48.481-1.26 0-1.74z"/><path d="M39.867 22.244V3.691A3.696 3.696 0 0036.176 0H3.69A3.696 3.696 0 000 3.691v32.485a3.696 3.696 0 003.691 3.691h18.553A12.641 12.641 0 0029.285 42C36.296 42 42 36.296 42 29.285a12.64 12.64 0 00-2.133-7.04zm-2.46-18.553V19.51a12.657 12.657 0 00-8.122-2.94 12.657 12.657 0 00-8.12 2.94V2.46h15.01c.68 0 1.231.553 1.231 1.231zM3.69 2.461h15.012v16.242H2.461V3.691c0-.678.552-1.23 1.23-1.23zm-1.23 33.715V21.164h16.242v1.08a12.64 12.64 0 00-2.133 7.041c0 3.085 1.105 5.917 2.94 8.121H3.69c-.678 0-1.23-.552-1.23-1.23zm26.824 3.363c-5.654 0-10.254-4.6-10.254-10.254s4.6-10.254 10.254-10.254 10.254 4.6 10.254 10.254-4.6 10.254-10.254 10.254z"/></symbol><symbol id="icon-delivery" viewBox="0 0 67 67"><g clip-path="url(#clip0)"><path d="M50.602 39.834c-4.657 0-8.445 3.789-8.445 8.446s3.788 8.445 8.445 8.445c4.658 0 8.445-3.788 8.445-8.445s-3.788-8.446-8.445-8.446zm0 12.669a4.227 4.227 0 01-4.223-4.223 4.227 4.227 0 014.223-4.223 4.227 4.227 0 014.223 4.223 4.227 4.227 0 01-4.223 4.223zM21.747 39.834c-4.657 0-8.445 3.789-8.445 8.446s3.788 8.445 8.445 8.445 8.445-3.788 8.445-8.445-3.788-8.446-8.445-8.446zm0 12.669a4.227 4.227 0 01-4.223-4.223 4.227 4.227 0 014.223-4.223 4.227 4.227 0 014.223 4.223 4.227 4.227 0 01-4.223 4.223zM56.29 15.661a2.112 2.112 0 00-1.887-1.162h-11.12v4.222H53.1l5.75 11.435 3.773-1.897L56.29 15.66z"/><path d="M44.268 46.24H28.292v4.222h15.976v-4.223zM15.413 46.24h-7.32a2.111 2.111 0 100 4.222h7.32a2.111 2.111 0 100-4.223zM66.557 33.332l-4.153-5.35a2.109 2.109 0 00-1.667-.816H45.394V12.387a2.111 2.111 0 00-2.111-2.111H8.093a2.111 2.111 0 100 4.222h33.078v14.78c0 1.166.946 2.111 2.112 2.111h16.42l3.075 3.96v10.89h-5.842a2.111 2.111 0 100 4.222h7.953A2.111 2.111 0 0067 48.351V34.626c0-.47-.156-.925-.443-1.295zM15.272 35.542H5.56a2.111 2.111 0 100 4.222h9.712a2.111 2.111 0 100-4.222zM20.128 27.237H2.111a2.111 2.111 0 100 4.223h18.017a2.111 2.111 0 100-4.223z"/><path d="M23.577 18.932H5.56a2.111 2.111 0 100 4.223h18.017a2.111 2.111 0 100-4.223z"/></g><defs><clipPath id="clip0"><path d="M0 0h67v67H0z"/></clipPath></defs></symbol><symbol id="icon-finishing" viewBox="0 0 42 42"><g clip-path="url(#clip0)"><path d="M21 42c11.579 0 21-9.42 21-21 0-1.999-.279-3.968-.831-5.855a1.75 1.75 0 10-3.359.983c.457 1.567.69 3.207.69 4.872 0 9.65-7.85 17.5-17.5 17.5S3.5 30.65 3.5 21 11.35 3.5 21 3.5c3.507 0 6.88 1.025 9.757 2.965a1.75 1.75 0 001.957-2.902A20.87 20.87 0 0021 0C9.421 0 0 9.42 0 21s9.421 21 21 21z"/><path d="M39.013 4.013L21 22.025l-5.763-5.762a1.75 1.75 0 00-2.474 2.474l7 7c.342.343.789.513 1.237.513.448 0 .895-.17 1.237-.512l19.25-19.25a1.75 1.75 0 00-2.474-2.475z"/></g><defs><clipPath id="clip0"><path d="M0 0h42v42H0z"/></clipPath></defs></symbol><symbol id="icon-geomap" viewBox="0 0 15 21"><path d="M7.5 0A7.389 7.389 0 00.117 7.383a7.28 7.28 0 001.108 3.876L7 20.709c.098.16.246.259.418.284a.613.613 0 00.628-.296l5.791-9.537a7.282 7.282 0 001.046-3.777A7.389 7.389 0 007.5 0zm0 11.074a3.686 3.686 0 01-3.691-3.691A3.702 3.702 0 017.5 3.69a3.702 3.702 0 013.691 3.692c0 2.005-1.6 3.691-3.691 3.691z"/></symbol><symbol id="icon-menu-close" viewBox="0 0 30 30"><path fill-rule="evenodd" stroke-width="3" d="M27.228 3.186L15.914 14.5l11.314 11.314-1.414 1.414L14.5 15.914 3.186 27.228l-1.414-1.414L13.086 14.5 1.772 3.186l1.414-1.414L14.5 13.086 25.814 1.772l1.414 1.414z"/></symbol><symbol id="icon-menu-open" viewBox="0 0 28 20"><path d="M28 16.222H0v3.111h28v-3.11zM28 8.444H0v3.112h28V8.444zM28 .667H0v3.11h28V.668z"/></symbol><symbol id="icon-minus" viewBox="0 0 17 4"><path d="M0 0h17v4H0z"/></symbol><symbol id="icon-phone" viewBox="0 0 20 20"><path d="M7.668 5.231l-.921 1.435a1.81 1.81 0 00.194 2.211l2.008 2.174 2.174 2.008a1.81 1.81 0 002.211.194l1.556-.998 3.902 4.036-1.581 2.005a2.072 2.072 0 01-2.174.712c-3.202-.852-5.977-2.757-8.596-5.45C3.75 10.94 1.844 8.166.992 4.963a2.072 2.072 0 01.713-2.174L3.72 1.198l3.947 4.033z"/><path d="M14.935 12.227l-.235.15 4.014 4.013.088-.111a1.29 1.29 0 00-.102-1.711l-2.165-2.165a1.288 1.288 0 00-1.6-.176zM3.722 1.198l-.112.088L7.623 5.3l.15-.235a1.287 1.287 0 00-.175-1.6L5.433 1.3a1.289 1.289 0 00-1.711-.102z"/></symbol><symbol id="icon-play" viewBox="0 0 31 31"><path d="M0-.009L31.009 15.5 0 31.009V-.009z" fill-rule="evenodd"/></symbol><symbol id="icon-plus" viewBox="0 0 18 17"><path d="M17.368 10.596h-6.264v6.12H6.46v-6.12H.232V6.204H6.46V.084h4.644v6.12h6.264v4.392z"/></symbol><symbol id="icon-repair" viewBox="0 0 42 42"><path d="M9.337 30.543l.716-1.313 1.152.629-.716 1.312-1.152-.628zM15.837 21.349a1.937 1.937 0 011.835-1l.094-1.309a3.267 3.267 0 00-3.08 1.68l-3.919 7.185 1.152.628 3.918-7.184z"/><path d="M41.344 5.25A4.6 4.6 0 0036.75.656h-.928L22.697 13.781l1.313 1.313-2.699 2.698a5.82 5.82 0 00-3.781-1.386 5.854 5.854 0 00-4.875 2.625H.656v22.313h40.688V19.03H28.49L41.344 6.178V5.25zm-1.313 0a3.285 3.285 0 01-3.281-3.281 3.285 3.285 0 013.281 3.281zm-.846 1.231l-8.998 8.997-3.665-3.665 8.997-8.998a4.604 4.604 0 003.666 3.666zm-13.591 6.26l3.666 3.665-1.041 1.041-3.666-3.666 1.04-1.04zm.384 4.322l-4.57 4.57c-.526-.1-.94-.516-1.04-1.04l4.57-4.571 1.04 1.04zM9.753 24.28H8.53v-3.937H11.9L9.753 24.28zm-.716 1.313L6.889 29.53h-.983v-3.937h3.13zM4.594 29.53H1.969v-3.937h2.625v3.937zm1.608 1.313c-.192.46-.296.956-.296 1.456 0 .949.353 1.815.93 2.481H1.97v-3.937h4.233zm4.954 5.25v3.937h-5.25v-3.937h5.25zm19.688-10.5v3.937h-5.25v-3.937h5.25zm-2.625 9.187v-3.937h5.25v3.937h-5.25zm-6.563 0v-3.937h5.25v3.937h-5.25zm2.625-5.25h-1.605a5.862 5.862 0 001.605-1.37v1.37zm-3.988 1.313h.05v3.937h-7.27l7.22-3.937zm-7.824 5.25h5.25v3.937h-5.25v-3.937zm6.562 0h5.25v3.937h-5.25v-3.937zm6.563 0h5.25v3.937h-5.25v-3.937zm6.562 0h5.25v3.937h-5.25v-3.937zm2.625-1.313v-3.937h5.25v3.937h-5.25zm3.938-5.25v-3.937h1.312v3.937H38.72zm-1.313 0h-5.25v-3.937h5.25v3.937zm-9.187-5.25v-3.937h5.25v3.937h-5.25zm-1.313 0h-1.321a5.81 5.81 0 00-1.377-3.592l.345-.345h2.353v3.937zm-13.373-4.19a4.551 4.551 0 016.848-1.368l-1.35 1.35v.27a2.628 2.628 0 002.625 2.626h.272l1.348-1.349a4.553 4.553 0 01-1.368 6.847l-11.02 6.011a2.484 2.484 0 01-3.367-3.367l6.012-11.02zm-6.314.253v3.937h-5.25v-3.937h5.25zm-5.25 15.75h2.625v3.937H1.969v-3.937zm36.75 3.937v-3.937h1.312v3.937H38.72zm1.312-15.75h-5.25v-3.937h5.25v3.937zm-14.166-5.25l1.041-1.04 1.041 1.04h-2.082z"/></symbol><symbol id="icon-shield" viewBox="0 0 49 57"><path d="M47.174 9.23L25.354.17a2.226 2.226 0 00-1.708 0L1.826 9.23a2.227 2.227 0 00-1.373 2.057V22.3A37.287 37.287 0 0023.66 56.835c.539.22 1.143.22 1.683 0A37.288 37.288 0 0048.547 22.3V11.287c0-.9-.542-1.712-1.373-2.057zm-3.08 13.07c0 12.891-7.57 24.758-19.594 30.055C12.798 47.2 4.906 35.54 4.906 22.3v-9.527L24.5 4.638l19.594 8.135V22.3zm-22.055 7.505l9.57-9.57a2.226 2.226 0 113.149 3.149L23.613 34.528c-.87.87-2.279.87-3.148 0l-6.223-6.223a2.226 2.226 0 113.149-3.148l4.648 4.648z"/></symbol> <view id="icon-arr-down-view-yellow" viewBox="0 0 13 9"/><view id="icon-arr-down-view-grey" viewBox="0 19 13 9"/><view id="icon-arr-down-view-dark" viewBox="0 38 13 9"/><view id="icon-arr-down-view-white" viewBox="0 57 13 9"/><view id="icon-arr-left-view-yellow" viewBox="0 76 12 20"/><view id="icon-arr-left-view-grey" viewBox="0 106 12 20"/><view id="icon-arr-left-view-dark" viewBox="0 136 12 20"/><view id="icon-arr-left-view-white" viewBox="0 166 12 20"/><view id="icon-arr-right-view-yellow" viewBox="0 196 12 20"/><view id="icon-arr-right-view-grey" viewBox="0 226 12 20"/><view id="icon-arr-right-view-dark" viewBox="0 256 12 20"/><view id="icon-arr-right-view-white" viewBox="0 286 12 20"/><view id="icon-arr-up-view-yellow" viewBox="0 316 13 9"/><view id="icon-arr-up-view-grey" viewBox="0 335 13 9"/><view id="icon-arr-up-view-dark" viewBox="0 354 13 9"/><view id="icon-arr-up-view-white" viewBox="0 373 13 9"/><view id="icon-cache-view-yellow" viewBox="0 392 55 55"/><view id="icon-cache-view-grey" viewBox="0 457 55 55"/><view id="icon-cache-view-dark" viewBox="0 522 55 55"/><view id="icon-cache-view-white" viewBox="0 587 55 55"/><view id="icon-calendar-view-yellow" viewBox="0 652 49 52"/><view id="icon-calendar-view-grey" viewBox="0 714 49 52"/><view id="icon-calendar-view-dark" viewBox="0 776 49 52"/><view id="icon-calendar-view-white" viewBox="0 838 49 52"/><view id="icon-call-view-yellow" viewBox="0 900 42 42"/><view id="icon-call-view-grey" viewBox="0 952 42 42"/><view id="icon-call-view-dark" viewBox="0 1004 42 42"/><view id="icon-call-view-white" viewBox="0 1056 42 42"/><view id="icon-car-view-yellow" viewBox="0 1108 61 61"/><view id="icon-car-view-grey" viewBox="0 1179 61 61"/><view id="icon-car-view-dark" viewBox="0 1250 61 61"/><view id="icon-car-view-white" viewBox="0 1321 61 61"/><view id="icon-contract-view-yellow" viewBox="0 1392 42 42"/><view id="icon-contract-view-grey" viewBox="0 1444 42 42"/><view id="icon-contract-view-dark" viewBox="0 1496 42 42"/><view id="icon-contract-view-white" viewBox="0 1548 42 42"/><view id="icon-count-view-yellow" viewBox="0 1600 42 42"/><view id="icon-count-view-grey" viewBox="0 1652 42 42"/><view id="icon-count-view-dark" viewBox="0 1704 42 42"/><view id="icon-count-view-white" viewBox="0 1756 42 42"/><view id="icon-delivery-view-yellow" viewBox="0 1808 67 67"/><view id="icon-delivery-view-grey" viewBox="0 1885 67 67"/><view id="icon-delivery-view-dark" viewBox="0 1962 67 67"/><view id="icon-delivery-view-white" viewBox="0 2039 67 67"/><view id="icon-finishing-view-yellow" viewBox="0 2116 42 42"/><view id="icon-finishing-view-grey" viewBox="0 2168 42 42"/><view id="icon-finishing-view-dark" viewBox="0 2220 42 42"/><view id="icon-finishing-view-white" viewBox="0 2272 42 42"/><view id="icon-geomap-view-yellow" viewBox="0 2324 15 21"/><view id="icon-geomap-view-grey" viewBox="0 2355 15 21"/><view id="icon-geomap-view-dark" viewBox="0 2386 15 21"/><view id="icon-geomap-view-white" viewBox="0 2417 15 21"/><view id="icon-menu-close-view-yellow" viewBox="0 2448 30 30"/><view id="icon-menu-close-view-grey" viewBox="0 2488 30 30"/><view id="icon-menu-close-view-dark" viewBox="0 2528 30 30"/><view id="icon-menu-close-view-white" viewBox="0 2568 30 30"/><view id="icon-menu-open-view-yellow" viewBox="0 2608 28 20"/><view id="icon-menu-open-view-grey" viewBox="0 2638 28 20"/><view id="icon-menu-open-view-dark" viewBox="0 2668 28 20"/><view id="icon-menu-open-view-white" viewBox="0 2698 28 20"/><view id="icon-minus-view-yellow" viewBox="0 2728 17 4"/><view id="icon-minus-view-grey" viewBox="0 2742 17 4"/><view id="icon-minus-view-dark" viewBox="0 2756 17 4"/><view id="icon-minus-view-white" viewBox="0 2770 17 4"/><view id="icon-phone-view-yellow" viewBox="0 2784 20 20"/><view id="icon-phone-view-grey" viewBox="0 2814 20 20"/><view id="icon-phone-view-dark" viewBox="0 2844 20 20"/><view id="icon-phone-view-white" viewBox="0 2874 20 20"/><view id="icon-play-view-yellow" viewBox="0 2904 31 31"/><view id="icon-play-view-grey" viewBox="0 2945 31 31"/><view id="icon-play-view-dark" viewBox="0 2986 31 31"/><view id="icon-play-view-white" viewBox="0 3027 31 31"/><view id="icon-plus-view-yellow" viewBox="0 3068 18 17"/><view id="icon-plus-view-grey" viewBox="0 3095 18 17"/><view id="icon-plus-view-dark" viewBox="0 3122 18 17"/><view id="icon-plus-view-white" viewBox="0 3149 18 17"/><view id="icon-repair-view-yellow" viewBox="0 3176 42 42"/><view id="icon-repair-view-grey" viewBox="0 3228 42 42"/><view id="icon-repair-view-dark" viewBox="0 3280 42 42"/><view id="icon-repair-view-white" viewBox="0 3332 42 42"/><view id="icon-shield-view-yellow" viewBox="0 3384 49 57"/><view id="icon-shield-view-grey" viewBox="0 3451 49 57"/><view id="icon-shield-view-dark" viewBox="0 3518 49 57"/><view id="icon-shield-view-white" viewBox="0 3585 49 57"/> <use xlink:href="#icon-arr-down" x="0" y="0" width="13" height="9" style="fill:#fdca0d"/><use xlink:href="#icon-arr-down" x="0" y="19" width="13" height="9" style="fill:#757575"/><use xlink:href="#icon-arr-down" x="0" y="38" width="13" height="9" style="fill:#474747"/><use xlink:href="#icon-arr-down" x="0" y="57" width="13" height="9" style="fill:#ffffff"/><use xlink:href="#icon-arr-left" x="0" y="76" width="12" height="20" style="fill:#fdca0d"/><use xlink:href="#icon-arr-left" x="0" y="106" width="12" height="20" style="fill:#757575"/><use xlink:href="#icon-arr-left" x="0" y="136" width="12" height="20" style="fill:#474747"/><use xlink:href="#icon-arr-left" x="0" y="166" width="12" height="20" style="fill:#ffffff"/><use xlink:href="#icon-arr-right" x="0" y="196" width="12" height="20" style="fill:#fdca0d"/><use xlink:href="#icon-arr-right" x="0" y="226" width="12" height="20" style="fill:#757575"/><use xlink:href="#icon-arr-right" x="0" y="256" width="12" height="20" style="fill:#474747"/><use xlink:href="#icon-arr-right" x="0" y="286" width="12" height="20" style="fill:#ffffff"/><use xlink:href="#icon-arr-up" x="0" y="316" width="13" height="9" style="fill:#fdca0d"/><use xlink:href="#icon-arr-up" x="0" y="335" width="13" height="9" style="fill:#757575"/><use xlink:href="#icon-arr-up" x="0" y="354" width="13" height="9" style="fill:#474747"/><use xlink:href="#icon-arr-up" x="0" y="373" width="13" height="9" style="fill:#ffffff"/><use xlink:href="#icon-cache" x="0" y="392" width="55" height="55" style="fill:#fdca0d"/><use xlink:href="#icon-cache" x="0" y="457" width="55" height="55" style="fill:#757575"/><use xlink:href="#icon-cache" x="0" y="522" width="55" height="55" style="fill:#474747"/><use xlink:href="#icon-cache" x="0" y="587" width="55" height="55" style="fill:#ffffff"/><use xlink:href="#icon-calendar" x="0" y="652" width="49" height="52" style="fill:#fdca0d"/><use xlink:href="#icon-calendar" x="0" y="714" width="49" height="52" style="fill:#757575"/><use xlink:href="#icon-calendar" x="0" y="776" width="49" height="52" style="fill:#474747"/><use xlink:href="#icon-calendar" x="0" y="838" width="49" height="52" style="fill:#ffffff"/><use xlink:href="#icon-call" x="0" y="900" width="42" height="42" style="fill:#fdca0d"/><use xlink:href="#icon-call" x="0" y="952" width="42" height="42" style="fill:#757575"/><use xlink:href="#icon-call" x="0" y="1004" width="42" height="42" style="fill:#474747"/><use xlink:href="#icon-call" x="0" y="1056" width="42" height="42" style="fill:#ffffff"/><use xlink:href="#icon-car" x="0" y="1108" width="61" height="61" style="fill:#fdca0d"/><use xlink:href="#icon-car" x="0" y="1179" width="61" height="61" style="fill:#757575"/><use xlink:href="#icon-car" x="0" y="1250" width="61" height="61" style="fill:#474747"/><use xlink:href="#icon-car" x="0" y="1321" width="61" height="61" style="fill:#ffffff"/><use xlink:href="#icon-contract" x="0" y="1392" width="42" height="42" style="fill:#fdca0d"/><use xlink:href="#icon-contract" x="0" y="1444" width="42" height="42" style="fill:#757575"/><use xlink:href="#icon-contract" x="0" y="1496" width="42" height="42" style="fill:#474747"/><use xlink:href="#icon-contract" x="0" y="1548" width="42" height="42" style="fill:#ffffff"/><use xlink:href="#icon-count" x="0" y="1600" width="42" height="42" style="fill:#fdca0d"/><use xlink:href="#icon-count" x="0" y="1652" width="42" height="42" style="fill:#757575"/><use xlink:href="#icon-count" x="0" y="1704" width="42" height="42" style="fill:#474747"/><use xlink:href="#icon-count" x="0" y="1756" width="42" height="42" style="fill:#ffffff"/><use xlink:href="#icon-delivery" x="0" y="1808" width="67" height="67" style="fill:#fdca0d"/><use xlink:href="#icon-delivery" x="0" y="1885" width="67" height="67" style="fill:#757575"/><use xlink:href="#icon-delivery" x="0" y="1962" width="67" height="67" style="fill:#474747"/><use xlink:href="#icon-delivery" x="0" y="2039" width="67" height="67" style="fill:#ffffff"/><use xlink:href="#icon-finishing" x="0" y="2116" width="42" height="42" style="fill:#fdca0d"/><use xlink:href="#icon-finishing" x="0" y="2168" width="42" height="42" style="fill:#757575"/><use xlink:href="#icon-finishing" x="0" y="2220" width="42" height="42" style="fill:#474747"/><use xlink:href="#icon-finishing" x="0" y="2272" width="42" height="42" style="fill:#ffffff"/><use xlink:href="#icon-geomap" x="0" y="2324" width="15" height="21" style="fill:#fdca0d"/><use xlink:href="#icon-geomap" x="0" y="2355" width="15" height="21" style="fill:#757575"/><use xlink:href="#icon-geomap" x="0" y="2386" width="15" height="21" style="fill:#474747"/><use xlink:href="#icon-geomap" x="0" y="2417" width="15" height="21" style="fill:#ffffff"/><use xlink:href="#icon-menu-close" x="0" y="2448" width="30" height="30" style="fill:#fdca0d"/><use xlink:href="#icon-menu-close" x="0" y="2488" width="30" height="30" style="fill:#757575"/><use xlink:href="#icon-menu-close" x="0" y="2528" width="30" height="30" style="fill:#474747"/><use xlink:href="#icon-menu-close" x="0" y="2568" width="30" height="30" style="fill:#ffffff"/><use xlink:href="#icon-menu-open" x="0" y="2608" width="28" height="20" style="fill:#fdca0d"/><use xlink:href="#icon-menu-open" x="0" y="2638" width="28" height="20" style="fill:#757575"/><use xlink:href="#icon-menu-open" x="0" y="2668" width="28" height="20" style="fill:#474747"/><use xlink:href="#icon-menu-open" x="0" y="2698" width="28" height="20" style="fill:#ffffff"/><use xlink:href="#icon-minus" x="0" y="2728" width="17" height="4" style="fill:#fdca0d"/><use xlink:href="#icon-minus" x="0" y="2742" width="17" height="4" style="fill:#757575"/><use xlink:href="#icon-minus" x="0" y="2756" width="17" height="4" style="fill:#474747"/><use xlink:href="#icon-minus" x="0" y="2770" width="17" height="4" style="fill:#ffffff"/><use xlink:href="#icon-phone" x="0" y="2784" width="20" height="20" style="fill:#fdca0d"/><use xlink:href="#icon-phone" x="0" y="2814" width="20" height="20" style="fill:#757575"/><use xlink:href="#icon-phone" x="0" y="2844" width="20" height="20" style="fill:#474747"/><use xlink:href="#icon-phone" x="0" y="2874" width="20" height="20" style="fill:#ffffff"/><use xlink:href="#icon-play" x="0" y="2904" width="31" height="31" style="fill:#fdca0d"/><use xlink:href="#icon-play" x="0" y="2945" width="31" height="31" style="fill:#757575"/><use xlink:href="#icon-play" x="0" y="2986" width="31" height="31" style="fill:#474747"/><use xlink:href="#icon-play" x="0" y="3027" width="31" height="31" style="fill:#ffffff"/><use xlink:href="#icon-plus" x="0" y="3068" width="18" height="17" style="fill:#fdca0d"/><use xlink:href="#icon-plus" x="0" y="3095" width="18" height="17" style="fill:#757575"/><use xlink:href="#icon-plus" x="0" y="3122" width="18" height="17" style="fill:#474747"/><use xlink:href="#icon-plus" x="0" y="3149" width="18" height="17" style="fill:#ffffff"/><use xlink:href="#icon-repair" x="0" y="3176" width="42" height="42" style="fill:#fdca0d"/><use xlink:href="#icon-repair" x="0" y="3228" width="42" height="42" style="fill:#757575"/><use xlink:href="#icon-repair" x="0" y="3280" width="42" height="42" style="fill:#474747"/><use xlink:href="#icon-repair" x="0" y="3332" width="42" height="42" style="fill:#ffffff"/><use xlink:href="#icon-shield" x="0" y="3384" width="49" height="57" style="fill:#fdca0d"/><use xlink:href="#icon-shield" x="0" y="3451" width="49" height="57" style="fill:#757575"/><use xlink:href="#icon-shield" x="0" y="3518" width="49" height="57" style="fill:#474747"/><use xlink:href="#icon-shield" x="0" y="3585" width="49" height="57" style="fill:#ffffff"/></svg>